<?xml version="1.0" standalone="no"?>
<!DOCTYPE svg PUBLIC "-//W3C//DTD SVG 20010904//EN"
 "http://www.w3.org/TR/2001/REC-SVG-20010904/DTD/svg10.dtd">
<svg version="1.0" xmlns="http://www.w3.org/2000/svg"
 width="399.000000pt" height="115.000000pt" viewBox="0 0 399.000000 115.000000"
 preserveAspectRatio="xMidYMid meet">

<g transform="translate(0.000000,115.000000) scale(0.100000,-0.100000)"
fill="#000000" stroke="none">
<path d="M735 871 c-50 -21 -74 -83 -61 -157 11 -54 45 -84 100 -84 63 0 78 7
65 31 -7 14 -21 19 -49 19 -49 0 -70 21 -70 71 0 47 27 79 69 79 20 0 30 6 34
19 3 11 2 22 -1 25 -8 9 -64 6 -87 -3z"/>
<path d="M906 864 c-3 -9 -6 -67 -6 -130 l0 -114 71 0 c67 0 70 1 67 23 -2 18
-10 23 -45 25 l-43 3 0 105 c0 95 -2 104 -19 104 -10 0 -22 -7 -25 -16z"/>
<path d="M1114 861 c-68 -41 -80 -156 -24 -213 23 -23 37 -28 77 -28 55 0 86
17 108 60 42 82 -16 200 -99 200 -17 0 -45 -9 -62 -19z m109 -48 c23 -26 30
-65 17 -98 -21 -56 -68 -70 -114 -34 -55 43 -21 149 48 149 19 0 40 -8 49 -17z"/>
<path d="M1342 753 c3 -109 5 -128 19 -131 11 -2 27 14 45 42 16 25 34 46 39
46 6 0 23 -21 38 -46 23 -38 31 -45 55 -42 l27 3 0 125 c0 122 -1 125 -22 128
-22 3 -23 0 -23 -72 0 -42 -3 -76 -7 -76 -5 0 -17 14 -28 30 -26 38 -44 38
-77 -2 l-27 -33 -1 78 c0 71 -2 77 -20 77 -20 0 -20 -5 -18 -127z"/>
<path d="M1620 756 c0 -104 3 -125 16 -130 30 -12 33 -6 36 72 l3 77 50 -77
c38 -60 55 -78 73 -78 22 0 23 1 20 128 l-3 127 -25 0 c-24 0 -25 -3 -26 -55
0 -30 -1 -62 -2 -70 -1 -8 -23 18 -48 58 -36 57 -51 72 -70 72 l-24 0 0 -124z"/>
<path d="M1896 859 c-37 -29 -35 -70 5 -103 17 -14 39 -26 49 -26 10 0 28 -8
41 -19 20 -16 21 -21 10 -35 -15 -18 -63 -21 -91 -6 -14 7 -20 6 -24 -7 -10
-24 7 -35 64 -41 43 -4 55 -1 75 18 48 45 21 108 -54 127 -73 19 -63 80 12 70
28 -4 40 -1 44 10 14 37 -87 47 -131 12z"/>
<path d="M2260 755 l0 -125 25 -6 c37 -9 110 4 128 24 28 31 30 65 7 95 -16
20 -20 35 -15 57 5 23 1 35 -19 55 -20 20 -35 25 -76 25 l-50 0 0 -125z m95
55 c0 -20 -6 -26 -27 -28 -25 -3 -28 0 -28 28 0 28 3 31 28 28 21 -2 27 -8 27
-28z m29 -86 c20 -19 20 -23 -1 -46 -9 -10 -30 -18 -50 -18 -32 0 -33 1 -33
40 0 39 1 40 34 40 19 0 42 -7 50 -16z"/>
<path d="M2486 788 c-3 -50 -6 -108 -6 -130 l0 -38 70 0 c68 0 70 1 70 25 0
23 -4 25 -40 25 l-40 0 0 105 c0 104 0 105 -24 105 -22 0 -23 -4 -30 -92z"/>
<path d="M2760 858 c-6 -13 -28 -68 -49 -123 -35 -90 -38 -101 -23 -112 23
-19 29 -16 37 14 11 43 21 50 67 44 37 -5 43 -10 52 -39 7 -27 13 -31 30 -26
12 4 23 8 24 9 7 6 -79 240 -91 247 -21 14 -37 9 -47 -14z m48 -101 c3 -21 -1
-27 -17 -27 -25 0 -34 14 -26 41 10 29 39 20 43 -14z"/>
<path d="M3015 871 c-50 -21 -74 -83 -61 -157 11 -54 45 -84 100 -84 63 0 78
7 65 31 -7 14 -21 19 -49 19 -49 0 -70 21 -70 71 0 48 28 79 70 79 25 0 30 4
30 25 0 22 -4 25 -32 24 -18 0 -42 -4 -53 -8z"/>
<path d="M3180 749 c0 -130 0 -130 23 -127 18 2 23 10 25 43 4 41 27 79 44 69
4 -3 20 -29 34 -57 32 -64 28 -60 53 -52 20 6 20 8 -14 75 -19 38 -35 76 -35
83 0 7 13 26 30 42 23 22 27 32 19 42 -19 22 -33 15 -73 -37 -21 -27 -42 -50
-47 -50 -5 0 -9 23 -9 50 0 47 -2 50 -25 50 l-25 0 0 -131z"/>
<path d="M1991 458 c-56 -152 -91 -258 -91 -280 0 -5 4 -8 8 -8 5 0 19 33 32
74 23 73 23 74 62 80 25 4 51 18 69 36 47 47 34 90 -28 90 -25 0 -31 4 -27 15
4 8 1 15 -5 15 -6 0 -15 -10 -20 -22z m84 -38 c16 -26 -67 -92 -94 -75 -14 8
12 60 36 74 23 13 50 14 58 1z"/>
<path d="M1318 433 c-36 -39 -48 -66 -48 -106 0 -40 16 -50 66 -41 33 6 73 39
61 50 -3 3 -19 -3 -35 -15 -42 -30 -72 -28 -72 4 0 31 21 74 48 99 24 21 45
13 37 -15 -8 -23 10 -26 19 -3 8 22 -11 54 -32 54 -10 0 -30 -12 -44 -27z"/>
<path d="M1506 439 c-51 -40 -74 -122 -41 -149 20 -17 49 -5 84 35 71 82 36
176 -43 114z m61 -16 c9 -22 -33 -97 -63 -113 -37 -20 -49 -2 -29 46 29 70 77
105 92 67z"/>
<path d="M1657 454 c-14 -14 -7 -25 13 -19 26 8 25 -5 -5 -65 -42 -82 -30 -88
36 -19 49 52 59 59 56 39 -3 -14 -8 -41 -11 -60 l-7 -35 18 25 c10 14 30 38
45 55 l27 30 1 -52 c0 -49 2 -53 23 -53 23 0 47 17 47 32 0 5 -9 4 -20 -2 -30
-16 -39 -5 -33 39 7 48 -10 61 -41 32 -28 -26 -36 -27 -29 -2 7 29 -16 36 -47
13 l-28 -21 2 32 c1 25 -3 33 -19 35 -12 2 -24 0 -28 -4z"/>
<path d="M2193 428 c-38 -41 -53 -69 -53 -103 0 -40 27 -42 65 -5 32 31 55 33
55 5 0 -21 19 -28 36 -14 14 11 13 14 -6 21 -20 7 -22 13 -16 52 5 33 3 48 -9
60 -24 23 -37 20 -72 -16z m65 -10 c2 -9 -16 -38 -39 -63 -67 -72 -86 -43 -27
43 30 44 60 53 66 20z"/>
<path d="M2592 398 c-23 -70 -16 -105 19 -94 65 20 60 22 45 -22 -23 -63 -47
-93 -91 -113 l-40 -19 37 0 c61 0 96 57 132 215 18 80 20 98 7 91 -5 -4 -12
-24 -16 -46 -4 -27 -17 -48 -37 -65 -47 -40 -63 -13 -33 58 17 41 19 57 6 57
-4 0 -17 -28 -29 -62z"/>
<path d="M2372 390 c-29 -73 -24 -105 11 -69 31 34 95 72 107 64 6 -4 8 -15 5
-26 -7 -22 2 -59 14 -59 13 0 0 93 -15 109 -11 12 -19 10 -54 -13 -45 -30 -58
-29 -41 2 6 12 11 28 11 36 0 32 -16 14 -38 -44z"/>
</g>
</svg>
